<svg xmlns="http://www.w3.org/2000/svg" viewBox="0 0 512 512">
  <circle cx="256" cy="256" r="256" fill="#1fdf64"/>
  <path d="M373.1 370.4c-4.4 7.2-13.8 9.6-21 5.2-57.5-35.1-129.8-43-214.9-23.6-8.2 1.9-16.6-3.3-18.4-11.6-1.9-8.2 3.3-16.6 11.6-18.4 92.7-21.1 171.7-12.1 235.9 27.2 7.1 4.5 9.5 13.9 5.2 21.1zm31.4-69.5c-5.5 9-17.4 11.9-26.3 6.4-65.7-40.4-166-52.1-237.5-28.5-9.9 3.2-20.6-2.1-23.9-12-3.2-9.9 2.1-20.6 12-23.9 81.3-26.9 191.9-13.8 266.6 29.8 9 5.5 11.9 17.5 6.4 26.5zm3.8-73.6C329.8 179.8 191.1 175.2 111.4 199.4c-11.8 3.6-24.3-3.1-27.9-14.8-3.6-11.8 3.1-24.3 14.8-27.9 91.2-27.8 244-22.5 338.2 33.3 10.5 6.3 13.9 19.8 7.7 30.3-6.2 10.4-19.8 13.8-30.3 7.6z" fill="#000000"/>
</svg>
